<svg xmlns="http://www.w3.org/2000/svg" version="1.1" xmlns:xlink="http://www.w3.org/1999/xlink" xmlns:svgjs="http://svgjs.com/svgjs" width="512" height="512" x="0" y="0" viewBox="0 0 64 64" style="enable-background:new 0 0 512 512" xml:space="preserve" class=""><g><path fill="#12a3d8" d="M32.46 34.434a10.219 10.219 0 0 1-13.59 1.93C8.853 42.75-2.454 30.266 4.98 20.934c1.48-1.63 1.16-3.79 1.01-5.8.66-16.933 25.599-15.84 25.77 0-.15 2.01-.47 4.17 1 5.8a10.225 10.225 0 0 1-.3 13.5z" data-original="#12a3d8"></path><path d="M27.469 16.87v3.44c-.635 11.234-18.344 10.147-17.192-1.529 4.152.757 10.406-1.344 13.371-4.775z" opacity=".1" fill="#000000" data-original="#000000"></path><path fill="#6d2f54" d="M33.82 40.294v3.49a1.744 1.744 0 0 1-1.29 1.68 52.825 52.825 0 0 1-26.77.01 1.744 1.744 0 0 1-1.31-1.69v-3.49c-.095-6.532 5.084-12.589 11.75-12.54h5.87c6.64-.053 11.853 6 11.75 12.54z" data-original="#6d2f54"></path><path d="M15.632 23.831v4.78a3.072 3.072 0 0 0 3.241 2.867 3.072 3.072 0 0 0 3.242-2.867v-4.78z" opacity=".1" fill="#000000" data-original="#000000"></path><path fill="#f2e7b6" d="M15.632 22.963v4.78a3.072 3.072 0 0 0 3.241 2.867 3.072 3.072 0 0 0 3.242-2.868v-4.779z" data-original="#f2e7b6"></path><path d="M15.568 25.309h6.547v1.165h-6.547z" opacity=".1" fill="#000000" data-original="#000000"></path><path fill="#f2e7b6" d="M27.469 15.134v3.439c-.635 11.235-18.344 10.147-17.192-1.528 4.152.756 10.406-1.345 13.371-4.776z" data-original="#f2e7b6"></path><path d="M10.277 17.045a19.62 19.62 0 0 0 13.235-5.666s3.701 2.412 3.957 3.755l-3.82-2.865a16.42 16.42 0 0 1-13.372 4.776z" opacity=".1" fill="#000000" data-original="#000000"></path><path d="M32.46 34.434c1.477 2.596 1.42 6.351 1.36 9.35a1.743 1.743 0 0 1-1.29 1.68 52.43 52.43 0 0 1-11.37 1.69 13.558 13.558 0 0 1 9.97-4.96v-2.75a7.583 7.583 0 0 1-5.1-7.13v-1.68a3.362 3.362 0 0 1-1.39-6.42 22.003 22.003 0 0 1-.13-6.43c.33-2.15 2.81-4.29 5.03-4.53.42-.04 1.13-.11 2.01-.17.623 2.595-.796 5.646 1.21 7.85a10.225 10.225 0 0 1-.3 13.5z" opacity=".1" fill="#000000" data-original="#000000"></path><path fill="#12a3d8" d="M19.281 58.237a1.02 1.02 0 0 0 .757.991 56.692 56.692 0 0 0 15.485 1.975 67.152 67.152 0 0 0 15.481-1.977 1.02 1.02 0 0 0 .762-.992v-3.003a13.26 13.26 0 0 0-13.442-13.07h-5.6A13.26 13.26 0 0 0 19.28 55.23z" data-original="#12a3d8"></path><path d="M32.127 44.197a1.028 1.028 0 0 0 .561.916 6.02 6.02 0 0 0 5.653.01 1.049 1.049 0 0 0 .579-.928v-5.562h-6.793z" opacity=".1" fill="#000000" data-original="#000000"></path><path fill="#f2e7b6" d="M32.127 43.17a1.028 1.028 0 0 0 .561.917 6.02 6.02 0 0 0 5.653.01 1.049 1.049 0 0 0 .579-.927v-4.536h-6.793z" data-original="#f2e7b6"></path><path d="M32.151 39.245h6.769v.634h-6.769z" opacity=".1" fill="#000000" data-original="#000000"></path><path fill="#f2e7b6" d="M23.637 27.273a3.378 3.378 0 0 0 3.396 3.361v1.68a7.603 7.603 0 0 0 7.641 7.564h1.698a7.603 7.603 0 0 0 7.642-7.563v-1.68a3.361 3.361 0 0 0 1.392-6.422c-.144.883-2.326-5.344-3.09-5.344H28.73c-.764 0-2.946 6.227-3.09 5.344a3.35 3.35 0 0 0-2.004 3.06z" data-original="#f2e7b6"></path><path d="M35.523 24.981c-4.245 0-5.094-2.768-5.943-2.768-1.028 0-1.456 1.951-2.326 3.64a.864.864 0 0 1-1.613-.54 26.563 26.563 0 0 1-.128-7.059 6.425 6.425 0 0 1 5.027-4.973c.83-.085 2.906-.295 4.983-.295s4.154.21 4.984.295a6.425 6.425 0 0 1 5.026 4.973 26.567 26.567 0 0 1-.127 7.06c.018.944-1.136 1.43-1.613.54-.87-1.69-1.298-3.641-2.326-3.641-.85 0-1.698 2.768-5.944 2.768z" opacity=".1" fill="#000000" data-original="#000000"></path><path fill="#6d2f54" d="M35.523 23.91c-4.245 0-5.094-2.52-5.943-2.52-1.028 0-1.456 1.777-2.326 3.315a.87.87 0 0 1-1.613-.492 22.058 22.058 0 0 1-.128-6.429c.323-2.15 2.802-4.286 5.027-4.53.83-.077 2.906-.268 4.983-.268s4.154.191 4.984.269c2.225.243 4.704 2.378 5.026 4.53a22.06 22.06 0 0 1-.127 6.429.87.87 0 0 1-1.613.492c-.87-1.54-1.298-3.316-2.326-3.316-.85 0-1.698 2.52-5.944 2.52z" data-original="#6d2f54"></path><path fill="#ffc34a" d="M61.42 51.204a10 10 0 0 1-10 10c-13.265-.527-13.261-19.476 0-20a10 10 0 0 1 10 10z" data-original="#ffc34a"></path><path fill="#ffffff" d="M56.42 50.204h-4v-4a1 1 0 0 0-2 0v4h-4a1 1 0 0 0 0 2h4v4a1 1 0 0 0 2 0v-4h4a1 1 0 0 0 0-2z" data-original="#ffffff"></path></g></svg>