<svg xmlns="http://www.w3.org/2000/svg" version="1.1" xmlns:xlink="http://www.w3.org/1999/xlink" xmlns:svgjs="http://svgjs.com/svgjs" width="512" height="512" x="0" y="0" viewBox="0 0 512 512" style="enable-background:new 0 0 512 512" xml:space="preserve" class=""><g><circle cx="256" cy="256" r="187.5" fill="#ffd93b" data-original="#ffd93b" class=""></circle><path fill="#f4c534" d="M361.92 101.27c32.29 33.68 52.13 79.39 52.13 129.73 0 103.55-83.95 187.5-187.5 187.5-39.31 0-75.78-12.1-105.92-32.77 34.13 35.6 82.16 57.77 135.37 57.77 103.55 0 187.5-83.95 187.5-187.5 0-64.25-32.32-120.94-81.58-154.73z" data-original="#f4c534"></path><path fill="#674f27" d="M366.6 271.22c-2.54-3.25-7.04-2.69-11.95-2.69h-197.3c-4.91 0-9.41-.56-11.95 2.69-24.44 31.17 4.31 122.28 110.6 122.28s135.04-91.11 110.6-122.28z" data-original="#674f27"></path><path fill="#4c3626" d="M267.52 316.87c-3.61-.09-9.19 3.29-7.15 12.23 1.02 4.52 7.44 9.99 7.44 17.27 0 14.82-23.61 14.82-23.61 0 0-7.29 6.41-12.76 7.44-17.28 2.04-8.94-3.53-12.32-7.16-12.23-9.82.26-25.93 10.85-25.93 28.78 0 20.14 16.78 36.47 37.45 36.47s37.44-16.33 37.44-36.48c0-17.9-16.11-28.5-25.92-28.76z" data-original="#4c3626"></path><path fill="#f16f7f" d="M207.79 372.65c13.93 5.98 30 9.49 48.21 9.49s34.28-3.51 48.21-9.49c-13.44-6.44-29.44-10.39-48.21-10.39s-34.76 3.95-48.21 10.39z" data-original="#f16f7f"></path><path fill="#ffffff" d="M349.46 281H162.54c-12.83 0-12.83 25-.33 25h187.58c12.5 0 12.5-25-.33-25z" data-original="#ffffff"></path><path fill="#6dafdf" d="M427.5 286.46c45.67 47.99-16.38 113.23-62.06 65.23-33.35-35.07-34.86-101.88-34.86-101.88s63.58 1.61 96.92 36.65zM146.55 351.69c-45.66 47.99-107.73-17.24-62.05-65.23 33.35-35.05 96.93-36.65 96.93-36.65s-1.53 66.83-34.88 101.88z" data-original="#6dafdf"></path><g fill="#674f27"><path d="M234.29 235.18c-11.62-31.94-29.12-47.93-46.63-47.93s-35.01 15.99-46.62 47.93c-1.15 3.22 4.84 9.02 7.84 5.86 11.26-11.88 24.73-16.61 38.79-16.61s27.53 4.73 38.79 16.61c2.98 3.16 8.98-2.64 7.83-5.86zM370.97 235.18c-11.62-31.94-29.13-47.93-46.63-47.93s-35.01 15.99-46.63 47.93c-1.15 3.22 4.84 9.02 7.84 5.86 11.27-11.88 24.73-16.61 38.79-16.61s27.52 4.73 38.79 16.61c2.99 3.16 8.99-2.64 7.84-5.86z" fill="#674f27" data-original="#674f27"></path></g></g></svg>