<svg xmlns="http://www.w3.org/2000/svg" version="1.1" xmlns:xlink="http://www.w3.org/1999/xlink" xmlns:svgjs="http://svgjs.com/svgjs" width="512" height="512" x="0" y="0" viewBox="0 0 512 512" style="enable-background:new 0 0 512 512" xml:space="preserve" class=""><g><path d="M511.806 308.587c0-19.227-10.331-36.087-25.733-45.321a52.504 52.504 0 0 0 9.362-29.985c0-29.113-23.686-52.799-52.799-52.799H331.178c3.416-15.48 8.088-38.709 11.341-63.026 8.466-63.281 2.68-98.376-18.207-110.445C311.29-.512 297.25-2.038 284.778 2.71c-9.635 3.67-22.647 12.693-30.062 34.838l-29.294 76.701c-19.428 47.983-91.283 99.097-108.29 110.698H15.341c-8.365 0-15.146 6.782-15.146 15.146v222.458c0 8.365 6.782 15.146 15.146 15.146h103.523C176.572 500.456 237.28 512 299.359 512h121.446c29.113 0 52.799-23.686 52.799-52.799a52.481 52.481 0 0 0-7.93-27.804c17.601-8.572 29.759-26.646 29.759-47.503a52.501 52.501 0 0 0-9.362-29.985c15.404-9.234 25.735-26.095 25.735-45.322zM106.594 447.406H30.487V255.241h76.107v192.165zm352.412-116.312h-16.371c-8.365 0-15.146 6.782-15.146 15.146 0 8.365 6.782 15.146 15.146 15.146 12.41 0 22.507 10.097 22.507 22.508 0 12.41-10.097 22.507-22.507 22.507h-21.829c-8.365 0-15.146 6.782-15.146 15.146s6.782 15.146 15.146 15.146c12.41 0 22.507 10.097 22.507 22.507s-10.097 22.507-22.507 22.507H299.36c-55.784 0-110.388-9.925-162.472-29.517V248.154c22.873-15.78 94.897-68.646 116.683-122.707l.101-.258 29.463-77.143c.083-.216.161-.435.232-.654 2.857-8.65 7.187-14.465 12.195-16.372 4.856-1.851 10.074.186 13.595 2.221.13.075 12.765 9.498 3.369 79.966-5.337 40.021-15.03 78.299-15.126 78.681a15.149 15.149 0 0 0 14.677 18.887h130.561c12.41 0 22.507 10.097 22.507 22.507 0 12.41-10.097 22.507-22.507 22.507-8.365 0-15.146 6.782-15.146 15.146 0 8.365 6.782 15.146 15.146 15.146h16.371c12.41 0 22.507 10.097 22.507 22.507-.001 12.409-10.1 22.506-22.51 22.506z" fill="#000000" data-original="#000000" class=""></path></g></svg>