<svg xmlns="http://www.w3.org/2000/svg" version="1.1" xmlns:xlink="http://www.w3.org/1999/xlink" xmlns:svgjs="http://svgjs.com/svgjs" width="512" height="512" x="0" y="0" viewBox="0 0 512 512" style="enable-background:new 0 0 512 512" xml:space="preserve" class=""><g><path fill="#407fff" d="M511.918 256c0-141.387-114.598-256-255.957-256C114.598 0 0 114.613 0 256s114.598 256 255.96 256c141.36 0 255.958-114.613 255.958-256zm0 0" data-original="#407fff" class=""></path><path fill="#406aef" d="M393.07 39.8c46.36 46.333 75.035 110.36 75.035 181.083 0 141.387-114.597 256-255.96 256-50.446 0-97.473-14.602-137.11-39.801C121.348 483.372 185.312 512 255.961 512c141.36 0 255.957-114.613 255.957-256 0-90.934-47.406-170.785-118.848-216.2zm0 0" data-original="#406aef" class=""></path><path fill="#e3faff" d="M373.395 247.14c0-13.94-11.297-25.238-25.235-25.238h-35.77c10.333-25.851 11.087-47.047 11.02-53.836-.008-.746.16-3.39.16-3.976v-1.176c-.75-24.55-8.265-32.066-17.918-35.644-9.898 0-17.922 8.02-17.922 17.918v1.792c-.097 6.137-8.718 18.797-8.718 18.797l-65.758 66.516-1.11 1.363-20 53.485 20 82.93a4.55 4.55 0 0 0 4.551 4.55h123.801c8.422 0 15.582-6.14 16.856-14.469 4.867-31.836 16.043-105.71 16.043-113.011zm0 0" data-original="#e3faff" class=""></path><path fill="#48d8ff" d="M197.863 384.734h-45.058c-7.887 0-14.282-6.394-14.282-14.285V235.168c0-7.89 6.395-14.281 14.282-14.281h45.058c7.887 0 14.282 6.39 14.282 14.281v135.281c0 7.89-6.395 14.285-14.282 14.285zm0 0" data-original="#48d8ff" class=""></path><path fill="#43c5ff" d="M197.863 357.824h-45.058c-7.887 0-14.282-6.394-14.282-14.285v26.91c0 7.89 6.395 14.285 14.282 14.285h45.058c7.887 0 14.282-6.394 14.282-14.285v-26.91c0 7.89-6.395 14.285-14.282 14.285zm0 0" data-original="#43c5ff"></path><path fill="#ccf4ff" d="M348.16 221.902h-4.629c-.234 2.22-.59 5.125-1.035 8.57-8.476 65.544-64.273 114.622-130.351 114.622v24.972a4.554 4.554 0 0 0 4.55 4.555h123.801c8.422 0 15.582-6.144 16.856-14.469 4.867-31.836 16.043-105.71 16.043-113.015 0-13.938-11.297-25.235-25.235-25.235zm0 0" data-original="#ccf4ff" class=""></path></g></svg>