<svg xmlns="http://www.w3.org/2000/svg" version="1.1" xmlns:xlink="http://www.w3.org/1999/xlink" xmlns:svgjs="http://svgjs.com/svgjs" width="512" height="512" x="0" y="0" viewBox="0 0 425.2 425.2" style="enable-background:new 0 0 512 512" xml:space="preserve" class=""><g><path fill="#e83d58" d="M335.045 227.646 212.656 420.313 90.266 227.646C47.328 160.053 67.316 70.449 134.91 27.511s157.197-22.95 200.135 44.644c31.092 48.945 29.08 109.539 0 155.491z" data-original="#e83d58"></path><path fill="#cf244b" d="M144.788 216.644c-35.243-55.484-18.837-129.03 36.644-164.274C234.363 18.747 303.71 32.162 340.58 81.641a146.024 146.024 0 0 0-5.536-9.486C292.107 4.561 202.503-15.427 134.91 27.511 67.316 70.449 47.328 160.053 90.266 227.646l122.39 192.667 30.757-48.417z" data-original="#cf244b"></path><path fill="#4e2052" d="M212.656 425.198a4.883 4.883 0 0 1-4.123-2.266L86.143 230.266C41.829 160.507 62.531 67.701 132.291 23.387 156.375 8.088 184.117.002 212.519.002c51.646 0 98.992 25.993 126.65 69.533 30.954 48.728 30.955 111.815.004 160.724L216.779 422.933a4.884 4.884 0 0 1-4.123 2.265zm-.137-415.427c-26.543 0-52.474 7.561-74.99 21.862-65.212 41.427-84.565 128.182-43.14 193.394l118.267 186.176 118.266-186.176c28.934-45.722 28.936-104.702 0-150.254-25.856-40.702-70.119-65.002-118.403-65.002z" data-original="#4e2052"></path><circle cx="212.629" cy="136.99" r="63.502" fill="#ffffff" data-original="#ffffff"></circle><path fill="#4e2052" d="M212.629 205.378c-37.709 0-68.387-30.679-68.387-68.388s30.678-68.387 68.387-68.387c37.708 0 68.387 30.678 68.387 68.387s-30.679 68.388-68.387 68.388zm0-127.004c-32.322 0-58.617 26.295-58.617 58.616 0 32.322 26.295 58.617 58.617 58.617s58.617-26.295 58.617-58.617c0-32.321-26.295-58.616-58.617-58.616z" data-original="#4e2052"></path><path fill="#ffffff" d="M315.539 89.692c3.293 5.356 1.813 11.784-2.788 14.024-4.617 2.247-10.257.192-13.037-4.318-14.072-22.925-35.69-40.789-61.694-50.064-5.119-1.837-8.457-6.967-7.22-11.947 1.231-4.969 7.383-7.71 13.461-5.537 30.046 10.717 55.021 31.354 71.278 57.842zM332.163 129.916c1.5 6.28-1.895 12.101-6.97 12.779-5.087.687-9.822-3.193-11.09-8.479a122.05 122.05 0 0 0-1.667-6.255c-1.523-5.187.705-10.778 5.461-12.709 4.739-1.929 10.524 1.286 12.341 7.438a137.958 137.958 0 0 1 1.925 7.226z" data-original="#ffffff"></path></g></svg>