<svg xmlns="http://www.w3.org/2000/svg" version="1.1" xmlns:xlink="http://www.w3.org/1999/xlink" xmlns:svgjs="http://svgjs.com/svgjs" width="512" height="512" x="0" y="0" viewBox="0 0 100 100" style="enable-background:new 0 0 512 512" xml:space="preserve" class=""><g><path d="M50 10c-22.1 0-40 16.6-40 37.1 0 11.7 5.8 22.1 14.9 28.9l.2 13c0 .7.8 1.1 1.4.8l12.5-7c3.5.9 7.2 1.4 11.1 1.4 22.1 0 40-16.6 40-37.1S72 10 50 10zm2.9 49.2-8.5-8.9c-.5-.5-1.3-.6-1.9-.3l-15 8.1c-.6.3-1.1-.4-.7-.9l17.7-18.8c.5-.5 1.4-.5 1.9 0l8.5 9.1c.5.5 1.3.7 1.9.3l14.7-8c.6-.3 1.1.4.7.9L54.8 59.2c-.5.5-1.4.5-1.9 0z" fill="#000000" data-original="#000000" class=""></path></g></svg>